<?xml version="1.0" encoding="UTF-8"?>
<svg version="1.1" viewBox="0 0 153.1 70.104" xmlns="http://www.w3.org/2000/svg">
 <g transform="translate(-32.563 -96.7)">
  <path d="m32.563 96.904c4.6349 0.02004 11.743 3.4863 22.032 3.4331 10.289-0.0532 15.734-3.442 26.565-3.631 10.832-0.189 18.335 3.2824 29.685 3.1296 11.35-0.15272 20.107-2.9852 30.193-2.8409 6.4677 0.09249 18.155 2.2752 24.707 2.5307s16.891-2.6943 19.852-2.6842l0.0645 66.19c-3.3651 0.0818-13.677 2.5342-20.308 2.5373-6.6311 3e-3 -18.932-2.5333-24.973-2.7087-9.9929-0.29021-18.6 2.9811-29.96 2.8845-11.36-0.0966-20.842-3.6483-31.524-3.6365-10.682 0.0118-16.044 1.7832-25.847 1.7772-9.8033-6e-3 -16.833-2.8529-20.487-2.8607z" fill="#808080" stroke-linecap="round" stroke-width=".63486"/>
 </g>
</svg>
